<svg id="visual" viewBox="0 0 960 200" width="960" height="200" xmlns="http://www.w3.org/2000/svg" xmlns:xlink="http://www.w3.org/1999/xlink" version="1.1"><path d="M0 125L74 122L148 128L222 121L295 162L369 136L443 152L517 145L591 164L665 120L738 134L812 132L886 156L960 130L960 0L886 0L812 0L738 0L665 0L591 0L517 0L443 0L369 0L295 0L222 0L148 0L74 0L0 0Z" fill="#cfaa6e"></path><path d="M0 97L74 109L148 99L222 105L295 129L369 125L443 108L517 112L591 103L665 111L738 137L812 109L886 107L960 111L960 0L886 0L812 0L738 0L665 0L591 0L517 0L443 0L369 0L295 0L222 0L148 0L74 0L0 0Z" fill="#c39562"></path><path d="M0 101L74 78L148 63L222 66L295 70L369 88L443 106L517 80L591 105L665 78L738 102L812 93L886 97L960 66L960 0L886 0L812 0L738 0L665 0L591 0L517 0L443 0L369 0L295 0L222 0L148 0L74 0L0 0Z" fill="#b68058"></path><path d="M0 55L74 49L148 72L222 46L295 76L369 60L443 66L517 67L591 63L665 52L738 45L812 53L886 55L960 56L960 0L886 0L812 0L738 0L665 0L591 0L517 0L443 0L369 0L295 0L222 0L148 0L74 0L0 0Z" fill="#a76d4f"></path><path d="M0 20L74 22L148 27L222 22L295 20L369 18L443 17L517 27L591 21L665 39L738 45L812 20L886 45L960 37L960 0L886 0L812 0L738 0L665 0L591 0L517 0L443 0L369 0L295 0L222 0L148 0L74 0L0 0Z" fill="#975a47"></path></svg>